# xmcd CD database file
#
# Track frame offsets:
#	150
#	23262
#	56593
#	88279
#	112519
#	131238
#	150867
#	178091
#	206052
#	225316
#	244884
#	262436
#	289514
#	319641
#
# Disc length: 4500 seconds
#
# Revision: 0
# Processed by: cddbd v1.5.1PL2 Copyright (c) Steve Scherf et al.
# Submitted via: CDex 1.51
#
DISCID=b711920e
DTITLE=Frozen Swamp Choppers - On The Edge live in Madawaska 2005 11 11
DYEAR=2005
DGENRE=Blues
TTITLE0=Fun
TTITLE1=Need Some Green
TTITLE2=Honey Jar
TTITLE3=Folsom Prison Blues
TTITLE4=Yo Way
TTITLE5=I Got Loaded
TTITLE6=Push On
TTITLE7=Figure It Out
TTITLE8=You Rascal You
TTITLE9=Never Say You Love Me
TTITLE10=White Lightning
TTITLE11=Road Fever
TTITLE12=Hot All Day
TTITLE13=Here On This Hill
EXTD=YEAR: 2005
EXTT0=
EXTT1=
EXTT2=
EXTT3=
EXTT4=
EXTT5=
EXTT6=
EXTT7=
EXTT8=
EXTT9=
EXTT10=
EXTT11=
EXTT12=
EXTT13=
PLAYORDER=
